<?xml version="1.0" ?><!DOCTYPE svg  PUBLIC '-//W3C//DTD SVG 1.1//EN'  'http://www.w3.org/Graphics/SVG/1.1/DTD/svg11.dtd'><svg enable-background="new 0 0 141.732 141.732" height="141.732px" id="Livello_1" version="1.1" viewBox="0 0 141.732 141.732" width="141.732px" xml:space="preserve" xmlns="http://www.w3.org/2000/svg" xmlns:xlink="http://www.w3.org/1999/xlink"><g id="Livello_114"><path d="M135.055,115.131c0-3.528-2.861-6.396-6.395-6.396c-8.83,0-15.988-7.158-15.988-15.99V54.367   c0-20.006-14.209-36.709-33.139-40.679c0.588-1.242,0.928-2.628,0.928-4.095C80.462,4.296,76.165,0,70.866,0   c-5.299,0-9.594,4.296-9.594,9.598c0,1.467,0.339,2.853,0.927,4.095c-18.928,3.97-33.137,20.673-33.137,40.679v38.377   c0,8.832-7.159,15.99-15.99,15.99c-3.533,0-6.396,2.864-6.396,6.396c0,3.531,2.862,6.396,6.396,6.396h15.99h29.011   c0,9.716,5.729,17.591,12.793,17.591c7.064,0,12.792-7.875,12.792-17.591h29.014h15.988l0,0   C132.194,121.526,135.055,118.664,135.055,115.131"/></g><g id="Livello_1_1_"/></svg>